<svg width="320" height="205" viewBox="0 0 320 205" fill="none" xmlns="http://www.w3.org/2000/svg">
<rect x="183.439" y="46.4531" width="105.038" height="89.2401" fill="#2A4C23"/>
<rect width="169.507" height="204.229" transform="translate(0.0292969)" fill="white"/>
<circle cx="22.0795" cy="22.0502" r="6.05018" fill="#D50000"/>
<circle cx="37.2045" cy="22.0502" r="6.05018" fill="#FFBB0C"/>
<circle cx="52.3295" cy="22.0502" r="6.05018" fill="#14FF00"/>
<path d="M76.1094 25.4245C76.1094 25.5364 76.1538 25.6438 76.233 25.723C76.3122 25.8021 76.4195 25.8466 76.5315 25.8466C76.6434 25.8466 76.7508 25.8021 76.83 25.723C76.9091 25.6438 76.9536 25.5364 76.9536 25.4245V23.7361C76.9536 23.6241 76.9091 23.5168 76.83 23.4376C76.7508 23.3584 76.6434 23.314 76.5315 23.314C76.4195 23.314 76.3122 23.3584 76.233 23.4376C76.1538 23.5168 76.1094 23.6241 76.1094 23.7361V25.4245Z" fill="#949494"/>
<path fill-rule="evenodd" clip-rule="evenodd" d="M76.5306 15.9963C76.1322 15.9963 75.7703 16.1106 75.3769 16.3014C74.9976 16.486 74.5586 16.7584 74.011 17.0983L72.8476 17.8204C72.3299 18.1423 71.9139 18.4001 71.5943 18.6449C71.2628 18.8982 71.0084 19.1571 70.8243 19.4931C70.6409 19.8279 70.5587 20.1848 70.5187 20.6063C70.4805 21.0143 70.4805 21.5141 70.4805 22.1405V23.0483C70.4805 24.1199 70.4805 24.9658 70.5666 25.6271C70.6544 26.3053 70.8401 26.8529 71.2588 27.2857C71.6792 27.7207 72.2139 27.9155 72.8769 28.0072C73.5185 28.0967 74.3391 28.0967 75.3724 28.0967H77.6889C78.7222 28.0967 79.5428 28.0967 80.1844 28.0072C80.8468 27.9155 81.382 27.7207 81.803 27.2857C82.2212 26.8529 82.4069 26.3053 82.4953 25.6271C82.5808 24.9658 82.5808 24.1199 82.5808 23.0483V22.1405C82.5808 21.5141 82.5808 21.0149 82.5426 20.6063C82.5032 20.1842 82.4204 19.8279 82.237 19.4931C82.0529 19.1571 81.798 18.8987 81.467 18.6449C81.1474 18.3995 80.732 18.1423 80.2137 17.8204L79.0503 17.0983C78.5027 16.7584 78.0637 16.486 77.6838 16.3014C77.2916 16.11 76.9297 15.9963 76.5306 15.9963ZM74.437 17.8277C75.0083 17.4731 75.4107 17.2244 75.7467 17.0606C76.0736 16.9013 76.3055 16.8405 76.5306 16.8405C76.7558 16.8405 76.9876 16.9013 77.3146 17.0606C77.6512 17.2238 78.053 17.4731 78.6243 17.8277L79.7499 18.5262C80.2908 18.8622 80.6707 19.098 80.9543 19.3152C81.2295 19.5263 81.3877 19.7002 81.4963 19.8983C81.6049 20.097 81.6685 20.3294 81.7017 20.6851C81.7361 21.0498 81.7366 21.5096 81.7366 22.1613V23.0174C81.7366 24.1261 81.7355 24.9174 81.6578 25.5179C81.5813 26.1077 81.4366 26.4499 81.1963 26.6992C80.9571 26.9463 80.6318 27.0932 80.0685 27.1714C79.491 27.2514 78.7295 27.2525 77.6563 27.2525H75.405C74.3312 27.2525 73.5703 27.2514 72.9928 27.1714C72.4295 27.0926 72.1042 26.9463 71.8655 26.6987C71.6247 26.4499 71.48 26.1077 71.404 25.5179C71.3252 24.9174 71.3247 24.1267 71.3247 23.0174V22.1613C71.3247 21.5096 71.3247 21.0498 71.3596 20.6851C71.3928 20.3294 71.4564 20.097 71.565 19.8983C71.6736 19.7002 71.8318 19.5263 72.1075 19.3152C72.3906 19.098 72.7705 18.8622 73.3114 18.5262L74.437 17.8277Z" fill="#949494"/>
<path d="M102.308 26.6367L98.0605 22.4015C98.0101 22.3511 97.9743 22.2965 97.9531 22.2377C97.932 22.1789 97.9215 22.1158 97.9219 22.0486C97.9219 21.9814 97.9323 21.9184 97.9531 21.8595C97.974 21.8007 98.0098 21.7461 98.0605 21.6957L102.308 17.4479C102.426 17.3303 102.573 17.2715 102.749 17.2715C102.926 17.2715 103.077 17.3345 103.203 17.4606C103.329 17.5866 103.392 17.7337 103.392 17.9017C103.392 18.0698 103.329 18.2168 103.203 18.3429L99.4975 22.0486L103.203 25.7543C103.321 25.872 103.38 26.017 103.38 26.1894C103.38 26.3619 103.317 26.5109 103.191 26.6367C103.065 26.7627 102.917 26.8257 102.749 26.8257C102.581 26.8257 102.434 26.7627 102.308 26.6367Z" fill="#949494"/>
<path d="M117.307 26.6367L121.555 22.4015C121.605 22.3511 121.641 22.2965 121.662 22.2377C121.683 22.1789 121.694 22.1158 121.693 22.0486C121.693 21.9814 121.683 21.9184 121.662 21.8595C121.641 21.8007 121.605 21.7461 121.555 21.6957L117.307 17.4479C117.189 17.3303 117.042 17.2715 116.866 17.2715C116.689 17.2715 116.538 17.3345 116.412 17.4606C116.286 17.5866 116.223 17.7337 116.223 17.9017C116.223 18.0698 116.286 18.2168 116.412 18.3429L120.118 22.0486L116.412 25.7543C116.294 25.872 116.236 26.017 116.236 26.1894C116.236 26.3619 116.299 26.5109 116.425 26.6367C116.551 26.7627 116.698 26.8257 116.866 26.8257C117.034 26.8257 117.181 26.7627 117.307 26.6367Z" fill="#949494" fill-opacity="0.4"/>
<rect x="16.0293" y="52.1003" width="137.642" height="31.7634" fill="#2A4C23"/>
<rect x="16.0293" y="102.014" width="137.642" height="22.6882" fill="#7F947B"/>
<rect x="16.0293" y="133.778" width="137.642" height="22.6882" fill="#7F947B"/>
<rect x="16.0293" y="165.541" width="137.642" height="22.6882" fill="#7F947B"/>
<rect x="168.838" width="151.134" height="34.7885" fill="white"/>
<rect x="295.035" y="46.4531" width="24.9372" height="89.2401" fill="white"/>
<rect x="182.439" y="145.012" width="137.532" height="58.9892" fill="white"/>
</svg>
