<svg width="320" height="205" viewBox="0 0 320 205" fill="none" xmlns="http://www.w3.org/2000/svg">
<rect opacity="0.7" x="183.41" y="47.4531" width="105.038" height="89.2401" fill="#2A4C23"/>
<rect width="169.642" height="204.229" fill="#3A3A3A"/>
<circle cx="22.0502" cy="22.0502" r="6.05018" fill="#D50000"/>
<circle cx="37.1752" cy="22.0502" r="6.05018" fill="#FFBB0C"/>
<circle cx="52.3002" cy="22.0502" r="6.05018" fill="#14FF00"/>
<path d="M76.0801 25.4245C76.0801 25.5364 76.1246 25.6438 76.2037 25.723C76.2829 25.8021 76.3902 25.8466 76.5022 25.8466C76.6141 25.8466 76.7215 25.8021 76.8007 25.723C76.8798 25.6438 76.9243 25.5364 76.9243 25.4245V23.7361C76.9243 23.6241 76.8798 23.5168 76.8007 23.4376C76.7215 23.3584 76.6141 23.314 76.5022 23.314C76.3902 23.314 76.2829 23.3584 76.2037 23.4376C76.1246 23.5168 76.0801 23.6241 76.0801 23.7361V25.4245Z" fill="#949494"/>
<path fill-rule="evenodd" clip-rule="evenodd" d="M76.5014 15.9963C76.1029 15.9963 75.741 16.1106 75.3476 16.3014C74.9683 16.486 74.5293 16.7584 73.9817 17.0983L72.8183 17.8204C72.3006 18.1423 71.8846 18.4001 71.565 18.6449C71.2335 18.8982 70.9791 19.1571 70.795 19.4931C70.6116 19.8279 70.5294 20.1848 70.4894 20.6063C70.4512 21.0143 70.4512 21.5141 70.4512 22.1405V23.0483C70.4512 24.1199 70.4512 24.9658 70.5373 25.6271C70.6251 26.3053 70.8108 26.8529 71.2295 27.2857C71.65 27.7207 72.1846 27.9155 72.8476 28.0072C73.4892 28.0967 74.3098 28.0967 75.3431 28.0967H77.6596C78.6929 28.0967 79.5135 28.0967 80.1551 28.0072C80.8175 27.9155 81.3527 27.7207 81.7737 27.2857C82.1919 26.8529 82.3776 26.3053 82.466 25.6271C82.5515 24.9658 82.5515 24.1199 82.5515 23.0483V22.1405C82.5515 21.5141 82.5515 21.0149 82.5133 20.6063C82.4739 20.1842 82.3911 19.8279 82.2077 19.4931C82.0236 19.1571 81.7687 18.8987 81.4377 18.6449C81.1181 18.3995 80.7027 18.1423 80.1844 17.8204L79.021 17.0983C78.4734 16.7584 78.0344 16.486 77.6545 16.3014C77.2623 16.11 76.9004 15.9963 76.5014 15.9963ZM74.4077 17.8277C74.979 17.4731 75.3814 17.2244 75.7174 17.0606C76.0444 16.9013 76.2762 16.8405 76.5014 16.8405C76.7265 16.8405 76.9584 16.9013 77.2853 17.0606C77.6219 17.2238 78.0237 17.4731 78.595 17.8277L79.7206 18.5262C80.2615 18.8622 80.6414 19.098 80.925 19.3152C81.2002 19.5263 81.3584 19.7002 81.467 19.8983C81.5756 20.097 81.6392 20.3294 81.6724 20.6851C81.7068 21.0498 81.7073 21.5096 81.7073 22.1613V23.0174C81.7073 24.1261 81.7062 24.9174 81.6285 25.5179C81.552 26.1077 81.4073 26.4499 81.167 26.6992C80.9278 26.9463 80.6025 27.0932 80.0392 27.1714C79.4617 27.2514 78.7002 27.2525 77.627 27.2525H75.3757C74.3019 27.2525 73.541 27.2514 72.9635 27.1714C72.4002 27.0926 72.0749 26.9463 71.8362 26.6987C71.5954 26.4499 71.4507 26.1077 71.3747 25.5179C71.2959 24.9174 71.2954 24.1267 71.2954 23.0174V22.1613C71.2954 21.5096 71.2954 21.0498 71.3303 20.6851C71.3635 20.3294 71.4271 20.097 71.5357 19.8983C71.6443 19.7002 71.8025 19.5263 72.0782 19.3152C72.3613 19.098 72.7412 18.8622 73.2821 18.5262L74.4077 17.8277Z" fill="#949494"/>
<path d="M102.279 26.6367L98.0312 22.4015C97.9808 22.3511 97.945 22.2965 97.9238 22.2377C97.9027 22.1789 97.8922 22.1158 97.8926 22.0486C97.8926 21.9814 97.903 21.9184 97.9238 21.8595C97.9447 21.8007 97.9805 21.7461 98.0312 21.6957L102.279 17.4479C102.397 17.3303 102.544 17.2715 102.72 17.2715C102.897 17.2715 103.048 17.3345 103.174 17.4606C103.3 17.5866 103.363 17.7337 103.363 17.9017C103.363 18.0698 103.3 18.2168 103.174 18.3429L99.4682 22.0486L103.174 25.7543C103.292 25.872 103.35 26.017 103.35 26.1894C103.35 26.3619 103.287 26.5109 103.161 26.6367C103.035 26.7627 102.888 26.8257 102.72 26.8257C102.552 26.8257 102.405 26.7627 102.279 26.6367Z" fill="#949494"/>
<path d="M117.278 26.6367L121.525 22.4015C121.576 22.3511 121.612 22.2965 121.633 22.2377C121.654 22.1789 121.664 22.1158 121.664 22.0486C121.664 21.9814 121.654 21.9184 121.633 21.8595C121.612 21.8007 121.576 21.7461 121.525 21.6957L117.278 17.4479C117.16 17.3303 117.013 17.2715 116.837 17.2715C116.66 17.2715 116.509 17.3345 116.383 17.4606C116.257 17.5866 116.194 17.7337 116.194 17.9017C116.194 18.0698 116.257 18.2168 116.383 18.3429L120.088 22.0486L116.383 25.7543C116.265 25.872 116.206 26.017 116.206 26.1894C116.206 26.3619 116.269 26.5109 116.395 26.6367C116.521 26.7627 116.668 26.8257 116.837 26.8257C117.005 26.8257 117.152 26.7627 117.278 26.6367Z" fill="#949494" fill-opacity="0.4"/>
<rect opacity="0.7" x="16" y="52.1003" width="137.642" height="31.7634" fill="#2A4C23"/>
<rect x="16" y="102.014" width="137.642" height="22.6882" fill="#7F947B"/>
<rect x="16" y="133.778" width="137.642" height="22.6882" fill="#7F947B"/>
<rect x="16" y="165.541" width="137.642" height="22.6882" fill="#7F947B"/>
<rect x="168.809" width="151.134" height="34.7885" fill="white"/>
<rect x="168.865" width="151.134" height="34.7885" fill="#3A3A3A"/>
<rect x="295.006" y="47.4531" width="24.9372" height="89.2401" fill="#7F947B"/>
<rect x="182.41" y="146.012" width="137.532" height="58.9892" fill="#7F947B"/>
</svg>
