<svg width="40" height="40" viewBox="0 0 40 40" fill="none" xmlns="http://www.w3.org/2000/svg">
<rect x="0.5" y="0.5" width="39" height="39" rx="19.5" fill="white"/>
<rect x="0.5" y="0.5" width="39" height="39" rx="19.5" stroke="#949494"/>
<path fill-rule="evenodd" clip-rule="evenodd" d="M21.6423 13.138C21.3353 13.538 20.9863 14.161 20.4673 15.092L20.2043 15.562L20.1533 15.655C19.9183 16.078 19.7003 16.471 19.3463 16.74C18.9893 17.011 18.5533 17.109 18.0963 17.211L17.9963 17.234L17.4863 17.349C16.4763 17.578 15.8073 17.731 15.3533 17.91C14.9133 18.084 14.8683 18.207 14.8513 18.26C14.8313 18.323 14.8033 18.465 15.0683 18.886C15.3383 19.314 15.7963 19.853 16.4833 20.656L16.8303 21.062L16.8963 21.14C17.2123 21.507 17.5013 21.844 17.6343 22.271C17.7663 22.696 17.7223 23.141 17.6743 23.631L17.6643 23.734L17.6113 24.276C17.5073 25.346 17.4393 26.067 17.4623 26.583C17.4853 27.097 17.5923 27.185 17.6273 27.211L17.6283 27.212C17.6533 27.232 17.7473 27.304 18.1943 27.176C18.6623 27.042 19.2913 26.755 20.2363 26.32L20.7123 26.1L20.8083 26.056C21.2343 25.859 21.6423 25.67 22.0893 25.67C22.5363 25.67 22.9443 25.859 23.3693 26.056L23.4663 26.1L23.9423 26.32C24.8873 26.755 25.5163 27.042 25.9843 27.176C26.4313 27.304 26.5243 27.232 26.5493 27.212L26.5513 27.211C26.5863 27.185 26.6933 27.097 26.7163 26.583C26.7393 26.068 26.6713 25.346 26.5673 24.276L26.5153 23.734L26.5053 23.631C26.4563 23.141 26.4123 22.696 26.5453 22.271C26.6773 21.844 26.9663 21.507 27.2823 21.14L27.3483 21.062L27.6953 20.657C28.3823 19.853 28.8403 19.314 29.1103 18.886C29.3753 18.465 29.3463 18.323 29.3273 18.261C29.3103 18.207 29.2663 18.084 28.8253 17.911C28.3713 17.731 27.7013 17.578 26.6923 17.349L26.1823 17.234L26.0823 17.211C25.6253 17.109 25.1893 17.011 24.8323 16.74C24.4783 16.471 24.2603 16.078 24.0253 15.655L23.9743 15.562L23.7113 15.092C23.1933 14.162 22.8433 13.538 22.5363 13.138C22.2383 12.748 22.1143 12.75 22.0913 12.75H22.0873C22.0643 12.75 21.9403 12.748 21.6423 13.138ZM20.4513 12.226C20.8413 11.716 21.3513 11.25 22.0893 11.25C22.8273 11.25 23.3383 11.717 23.7273 12.226C24.1093 12.724 24.5113 13.445 24.9923 14.308L25.2843 14.832C25.6043 15.407 25.6693 15.492 25.7383 15.545C25.8043 15.595 25.8903 15.63 26.5143 15.771L27.0843 15.9C28.0163 16.11 28.8003 16.288 29.3753 16.515C29.9773 16.752 30.5423 17.116 30.7593 17.815C30.9743 18.506 30.7273 19.133 30.3793 19.685C30.0443 20.218 29.5123 20.84 28.8743 21.585L28.8343 21.631L28.4883 22.037C28.0663 22.53 28.0063 22.623 27.9773 22.717C27.9473 22.814 27.9443 22.932 28.0073 23.59L28.0663 24.19C28.1623 25.186 28.2433 26.015 28.2143 26.65C28.1853 27.298 28.0373 27.966 27.4583 28.406C26.8683 28.854 26.1873 28.795 25.5713 28.618C24.9783 28.448 24.2443 28.11 23.3723 27.708L22.8383 27.463C22.2523 27.193 22.1643 27.17 22.0893 27.17C22.0143 27.17 21.9263 27.193 21.3393 27.463L20.8053 27.709C19.9343 28.11 19.2003 28.449 18.6073 28.619C17.9913 28.794 17.3113 28.854 16.7203 28.406C16.1403 27.966 15.9933 27.298 15.9643 26.65C15.9353 26.015 16.0163 25.186 16.1123 24.19L16.1703 23.59C16.2343 22.932 16.2323 22.814 16.2023 22.717C16.1723 22.623 16.1123 22.53 15.6903 22.037L15.3043 21.585C14.6673 20.84 14.1343 20.218 13.7983 19.685C13.4513 19.133 13.2043 18.506 13.4183 17.815C13.6363 17.116 14.2013 16.752 14.8033 16.515C15.3783 16.288 16.1633 16.111 17.0933 15.9L17.6643 15.77C18.2883 15.63 18.3743 15.594 18.4403 15.545C18.5103 15.492 18.5743 15.407 18.8943 14.832L19.1863 14.308C19.6683 13.445 20.0693 12.724 20.4513 12.226ZM16.7453 13.202C14.7643 12.632 12.6383 12.932 10.5873 14.134L10.3793 14.256C10.2942 14.3058 10.2002 14.3383 10.1026 14.3517C10.005 14.3652 9.90573 14.3593 9.81041 14.3343C9.71509 14.3094 9.62561 14.2659 9.54709 14.2064C9.46857 14.1469 9.40254 14.0725 9.35276 13.9875C9.30299 13.9025 9.27046 13.8085 9.25702 13.7109C9.24357 13.6133 9.24949 13.514 9.27442 13.4186C9.29935 13.3233 9.34282 13.2338 9.40233 13.1553C9.46184 13.0768 9.53623 13.0108 9.62126 12.961L9.82926 12.84C12.1893 11.457 14.7373 11.062 17.1613 11.76L17.3693 11.82C17.5605 11.8752 17.722 12.004 17.8182 12.1783C17.9144 12.3525 17.9374 12.5578 17.8823 12.749C17.8271 12.9402 17.6982 13.1017 17.524 13.1979C17.3498 13.2941 17.1445 13.3172 16.9533 13.262L16.7453 13.202ZM12.8363 17.936C12.8532 18.1341 12.7907 18.3308 12.6626 18.4829C12.5346 18.635 12.3514 18.73 12.1533 18.747C11.9993 18.76 11.8833 18.767 11.7833 18.774C11.6343 18.7797 11.486 18.7958 11.3393 18.822C11.1433 18.86 10.8873 18.939 10.4243 19.171C10.3361 19.2159 10.2398 19.2429 10.1411 19.2504C10.0424 19.258 9.94323 19.2459 9.84922 19.2149C9.75521 19.1839 9.66827 19.1346 9.59341 19.0699C9.51855 19.0051 9.45724 18.9262 9.41303 18.8376C9.36881 18.7491 9.34257 18.6526 9.3358 18.5539C9.32904 18.4551 9.34188 18.356 9.37361 18.2622C9.40533 18.1685 9.4553 18.0819 9.52063 18.0076C9.58596 17.9332 9.66537 17.8725 9.75426 17.829C10.2913 17.561 10.6803 17.421 11.0563 17.349C11.3033 17.301 11.5583 17.285 11.7873 17.269L12.0253 17.253C12.2234 17.2361 12.4201 17.2985 12.5721 17.4266C12.7242 17.5547 12.8192 17.7379 12.8363 17.936ZM13.9183 23.856C13.3383 23.7188 12.7349 23.7134 12.1525 23.8402C11.5701 23.9671 11.0236 24.223 10.5533 24.589C10.4762 24.6526 10.3872 24.7001 10.2915 24.7288C10.1958 24.7575 10.0953 24.7668 9.996 24.7561C9.89666 24.7455 9.80046 24.7151 9.71303 24.6667C9.62561 24.6183 9.54873 24.553 9.4869 24.4745C9.42508 24.396 9.37956 24.306 9.35301 24.2097C9.32646 24.1134 9.31943 24.0127 9.33232 23.9137C9.34521 23.8146 9.37776 23.7191 9.42807 23.6328C9.47837 23.5464 9.54542 23.471 9.62526 23.411C10.2726 22.9056 11.0251 22.5521 11.8273 22.3764C12.6296 22.2007 13.461 22.2074 14.2603 22.396C14.4496 22.4454 14.612 22.5668 14.7131 22.7344C14.8141 22.9019 14.8457 23.1023 14.801 23.2927C14.7564 23.4832 14.6392 23.6487 14.4742 23.7539C14.3093 23.8592 14.1098 23.8958 13.9183 23.856Z" fill="black"/>
</svg>
