<svg width="541" height="304" viewBox="0 0 541 304" fill="none" xmlns="http://www.w3.org/2000/svg">
<rect x="17.8398" y="-48" width="65" height="435" transform="rotate(25 17.8398 -48)" fill="#CFD8DC"/>
<rect x="90.5879" y="-48" width="65" height="435" transform="rotate(25 90.5879 -48)" fill="#B5D0B2"/>
<rect x="163.336" y="-48" width="65" height="435" transform="rotate(25 163.336 -48)" fill="#CFD8DC"/>
<rect x="236.086" y="-48" width="65" height="435" transform="rotate(25 236.086 -48)" fill="#B5D0B2"/>
<rect x="308.834" y="-48" width="65" height="435" transform="rotate(25 308.834 -48)" fill="#CFD8DC"/>
<rect x="381.584" y="-48" width="65" height="435" transform="rotate(25 381.584 -48)" fill="#B5D0B2"/>
<rect x="454.332" y="-48" width="65" height="435" transform="rotate(25 454.332 -48)" fill="#CFD8DC"/>
<rect x="527.082" y="-48" width="65" height="435" transform="rotate(25 527.082 -48)" fill="#B5D0B2"/>
<rect x="599.83" y="-48" width="65" height="435" transform="rotate(25 599.83 -48)" fill="#CFD8DC"/>
<rect x="672.58" y="-48" width="65" height="435" transform="rotate(25 672.58 -48)" fill="#B5D0B2"/>
</svg>
